<svg id="Layer_4" data-name="Layer 4" xmlns="http://www.w3.org/2000/svg" viewBox="0 0 332.23 292.97"><defs><style>.cls-1{fill:#a7a9ac;}.cls-2{fill:#bcbec0;}.cls-3,.cls-5{fill:#231f20;}.cls-4,.cls-6{fill:none;}.cls-4,.cls-5,.cls-6{stroke:#231f20;stroke-linecap:round;stroke-miterlimit:10;}.cls-4{stroke-width:2px;}</style></defs><path class="cls-1" d="M326.48,258.15a61.27,61.27,0,0,0-18.62-12.64c-7.17-3.1-14.68-5.1-21.23-9.48-6.2-4.14-11.51-10.57-12.21-18.24s6.6-9.42,10.66-14.09a4.93,4.93,0,0,0,3.74-4.59c.47-7.43-3.8-13.8-9.6-18.09-3.76-2.79-8.06-4.56-12.18-6.72-1.91-1-4.67-2.12-6-3.87-1.62-2.08-.3-3.09,1-4.85,2.56-3.57,5.79-6.53,8.53-10s4.72-7.14,7.33-10.54c6.05-7.9,12.4-15.58,18.6-23.35a5.22,5.22,0,0,0,1-2c9.31-7,13.11-15.72,15.43-26.59a26.12,26.12,0,0,0,1.9-5.72,4.31,4.31,0,0,0,2.87-3.33c2.17-9.35-5.14-15.42-13.43-17.6-2.32-.61-4.68-1.08-7-1.61-1.88-.42-6.3-.45-7.69-1.75,0,0,0-4.1.18-5.12.43-2.76,1.71-5.31,2.63-7.92l.06-.21a5,5,0,0,0,1.08-2,41.87,41.87,0,0,1,1.94-5.43A42,42,0,0,1,300,35.8a5.62,5.62,0,0,0,1.38-4c4.54-6.66,10-12.89,14.54-19,1.85-2.48.8-4.91-1.2-6.22a4.41,4.41,0,0,0-5.81-.68q-2.55,1.61-5.12,3.19a4.44,4.44,0,0,0-2.59.33c-9.49,4-20.44,8.58-27.14,16.83a69.9,69.9,0,0,0-8.39,6.6,152,152,0,0,0-13.72,13.5c-8.35,9.43-16.51,20.71-19.4,33.17a4.9,4.9,0,0,0,.24,3.14,69.74,69.74,0,0,0-2.19,36.45,4.6,4.6,0,0,0,1.21,2.39,53.61,53.61,0,0,0,3.07,11,5.7,5.7,0,0,0-.14,1.28c0,1.8,0,3.62,0,5.46a4.08,4.08,0,0,0-1.7.3c-4.52-5.91-9.14-11.69-14.62-16.61a79.7,79.7,0,0,0-11.84-14.82,145.84,145.84,0,0,0-12-10.29,4.36,4.36,0,0,0,1.51-3.69c-.27-7-1.23-14.44-7-19.15a20.29,20.29,0,0,0-6.42-3.26c-2.67-4-9.63-5-13.79-6.36-6.23-2.11-11.32-5.76-17.27-8.32-5.2-2.24-10-3.82-13.81-8.29A23.91,23.91,0,0,1,132.36,32a4.76,4.76,0,0,0-.57-2.56,3.86,3.86,0,0,0-4.47-2.6C99.71,30.37,83.14,55.69,70.23,77.76a5.33,5.33,0,0,0-.06,6.59A159.85,159.85,0,0,0,49.26,96.67c-1.5,1.08-2.38,1.71-3.62,2.66-5.59,4.29-9.84,8.36-16.23,15s-9.43,10-10.71,11.45c-6.92,7.7-9.93,17.61-12.57,27.39a5.2,5.2,0,0,0-.19,1.42c-4.54,12,1.38,25.66,7.73,36.17a151.88,151.88,0,0,0,13,17.74c5.08,6.18,9.76,10,17.18,13,5.83,2.37,8.43-6.82,3-9.47,3.7-.93,7.23-3.23,10.54-5.13A55.14,55.14,0,0,1,78.24,200a2.58,2.58,0,0,1,.08.26A5.16,5.16,0,0,0,87.08,202a64.42,64.42,0,0,1,12.85,11.68c5.81,6.67,10.33,14.9,17.73,20a32.87,32.87,0,0,0,9.49,4.37c-1.65,2.87-.27,7.67,4.14,7.91,17.57,1,35.49,1.29,51.34-7.47,3.2-1.77,3-5.31,1.13-7.47,2.36-1.38,4.66-2.86,6.89-4.48.93-.67,1.92-1.37,2.93-2.11a5.65,5.65,0,0,0,1,.84,4.82,4.82,0,0,0,1.07,1.72,4.93,4.93,0,0,0,2,1.22c2,.63,4.23-.68,5.09-1.22,3.14-2,3.89-4.3,7.81-10,2-3,1.77-2.25,3.36-4.63,2.79-4.17,5.75-9.61,10.09-16.65.78-1.28,1.89-3,2.89-2.83s1.37,2.13,1.51,3a2.23,2.23,0,0,0,0,.33,18.29,18.29,0,0,1-.13,2.45c-.09,1.58-.25,3.15-.39,4.73-.3,3.46-.62,6.93-.68,10.4a45.31,45.31,0,0,0,3,18.38c4.08,9.79,14.51,19.15,24.09,23.5,11.84,5.37,25.44,8.64,38.19,11a141.49,141.49,0,0,0,20.12,2.3c5.06.19,11.14.94,15-2.93C330.39,263.26,329,259.68,326.48,258.15Z" transform="translate(-0.41 -0.61)"/><path class="cls-2" d="M327.45,261.62c-.83-2.16-5.36-2.24-7.33-4.59a4,4,0,0,1-1-2.37,3.43,3.43,0,0,1,.15-1.13h0l-.6-.18h0l-.06,0a18,18,0,0,1-1.61-.91,8.17,8.17,0,0,0-1.91-1.68c-.78-.5-1.58-1-2.39-1.41a14.83,14.83,0,0,1-1.89-.67,14.56,14.56,0,0,1-3.26-2c-4.32-3.49-25.7-8.77-31.92-23a21.21,21.21,0,0,1-1.23-3.81A33.92,33.92,0,0,1,277,208.29a.42.42,0,0,0,0-.1,8.39,8.39,0,0,0,6.61-5.88c3.83-1.59,6.53-5.92,3.71-10.47-4.92-7.94-11.2-13.91-19.74-16.54q-3.24-2.31-6.55-4.55c-.08-.2-.15-.4-.24-.61a35.05,35.05,0,0,0-2.14-3.9c7.1-4.46,12.5-10.56,17.52-17.24,5.39-7.18,10.66-14.26,16.57-21,8.83-10.12,17.92-21.46,21.33-34.45a8.79,8.79,0,0,0,2.22-5.23A29.84,29.84,0,0,0,314.1,74a6.74,6.74,0,0,0-3.55-7.12l-.77-.42a4.59,4.59,0,0,0-1.2-1.53c-.68-.55-1.66-1-5.35-1.05-1,0-2.4,0-4.06.11a8.94,8.94,0,0,1-3.91.89c-1.15,0-3.24,0-4.55-1.37-1.53-1.58-1.22-4.16-.85-7.11a20,20,0,0,1,.67-3.25c1.9-3.64,4.05-7.06,4.62-8A238.28,238.28,0,0,1,309,25.67a5.78,5.78,0,0,0,1-4.32,8,8,0,0,0,.74-1.12c1.53-1,3-2.1,4.49-3.26,3.2-2.54,2.61-7.95,0-10.61-3.1-3.17-7.45-2.5-10.6,0-8.59,6.81-19.38,10.23-28.54,16.16a102.91,102.91,0,0,0-24.53,22.53c-5.13,6.47-12.43,15.29-17.33,29a85.87,85.87,0,0,0-4.88,25.36c.31,5.35.82,11,1.62,17a226.07,226.07,0,0,0,4.61,24.36,1.8,1.8,0,0,0-1.39,0c-1.42.71-1,4.18-.89,5.22.79,7.16.53,18.36.45,21.89-.18,7.23-.4,16.61-5.67,22.56-.83.93-3.38,3.58-2.92,4.17.29.38,1.71-.23,2.86-.8a10,10,0,0,0,.65,1.93c.55,1.23-.19,3.54-.37,4.79-.37,2.54-.74,5.07-.92,7.63a69.77,69.77,0,0,0,.79,15.21c1.29,8.57,4.06,17.77,12.05,22.3a7.89,7.89,0,0,0,1.91.79c7.13,7.72,19.56,12.06,29.08,15.63a150.13,150.13,0,0,0,34.21,8.15c2.61.33,5-1.36,6.33-3.6a27,27,0,0,0,4.65,1.71,7.64,7.64,0,0,0,3.65,0,4.68,4.68,0,0,0,1.62.16C325.14,268.24,328.31,263.86,327.45,261.62Z" transform="translate(-0.41 -0.61)"/><path class="cls-2" d="M196,90.31c-.5-3.08-.65-6.52-2.17-9.31-1.37-2.51-3.7-4.42-5.87-6.21a81.52,81.52,0,0,0-14.61-9.71,106.85,106.85,0,0,0-16.19-6.4l-1.78-.57a6.82,6.82,0,0,0-1.32-.44,58,58,0,0,1-11.47-4.88,26.36,26.36,0,0,1-2.26-1.54,16,16,0,0,0-2.63-2.57c-.35-.27-.71-.53-1.07-.79a55.29,55.29,0,0,1-5.73-7.57c-.05-.44-.08-.89-.09-1.33a8.77,8.77,0,0,0,.14-3c.16-1.51.44-3,.7-4.42a2.42,2.42,0,0,0-2.15-3.14,2.86,2.86,0,0,0-2,.2l-2.24,1.1a8.74,8.74,0,0,0-1.48-.14A6.83,6.83,0,0,0,117,34.22a130.43,130.43,0,0,0-15.18,10.53,186.27,186.27,0,0,0-21.5,20.82c-3.85,4.28-7.6,8.66-11.33,13.05a2.57,2.57,0,0,0,0,3.54,2.66,2.66,0,0,0,2.75.55,1.36,1.36,0,0,0,.36-.09Q81,79.11,90,76l4.42-1.48a3.33,3.33,0,0,0,1.25-.28l1.64-.69c.54-.17,1.07-.36,1.61-.54a41.42,41.42,0,0,0,5-1.74c.34-.08.69-.19,1-.26a37.65,37.65,0,0,1,9.89-.41c6.86.39,13.72.94,20.54,1.77,13,1.57,25.83,4.55,37.74,10a113.49,113.49,0,0,1,18.54,10.77,2.09,2.09,0,0,0,1.7.29,2.31,2.31,0,0,0,.91-.06A2.54,2.54,0,0,0,196,90.31Z" transform="translate(-0.41 -0.61)"/><path class="cls-3" d="M80.78,244.85c-14.55-4.31-28.87-10.65-40.9-20.09-22-17.35-45.2-43.67-38.2-73.83,4.07-17.1,16.91-29.75,28.65-42,29.28-29.35,70.91-44.64,112.18-37.82A135.65,135.65,0,0,1,206.44,102,91.86,91.86,0,0,1,220,117.35c3.84,5.53,7.14,11.42,10.79,17,1.3,1.84,2.48,3.95,4.24,5.25,0,0,0,0-.24,0a.73.73,0,0,0-.44.33c-.11-2.74-1.78-7.15-2.49-10-7.16-24-5.73-46.79,5.31-69.35,12-24.76,34-43.7,58.85-55,6.07-2.48,18.91-7.78,24.52-3.26a4.51,4.51,0,0,1,1.55,3.71c-.4,3.23-2.13,5.7-3.52,8.35-5.11,8.72-10.84,17-16.38,25.36q-2.78,4.17-5.48,8.35c-2.24,3.92-5.57,8.14-5.85,12.58.1,3,3.3,3.1,5.87,2.88,7.55-1,16.15-2.73,21.07,5,6.07,9.86,1.2,25.82-3.06,35.57-4.58,9.77-13,17.24-19.86,25-4.42,4.91-8.57,10-12.5,15.36s-7.56,11.5-13,15.72c-1.95,1.62-4.07,3-6,4.49-1.29,1.12-2.55,2.17-.65,3.59,4,2.57,9.15,4.12,13.18,7,6.73,4.54,13.4,10.19,16.19,18.18,1.28,3.76.62,8.73-2.9,11.24-4.57,3.33-11.37,3.43-12.47,10.06-1.11,6.13,2.65,12.29,6.5,16.91,4,4.84,10.26,7,16.37,9.83a231.32,231.32,0,0,1,26.87,14.19c8,5,8.92,11.43-1.54,14.29-11.78,3-24.14,1.83-35.93-.17-18.71-3.46-41-12.48-54.18-26.62-9.45-10.48-10.78-25.45-8.69-38.82.25-1.83.84-5.65,1-7.39a6.22,6.22,0,0,0-.15-2.76s.13,0,0,0c-1.73,1.31-2.67,3.62-3.87,5.5-1.64,2.89-3.23,5.85-5,8.73A85,85,0,0,1,206,224.86c-17,17.71-41.22,24.13-65,25.81-13.49,1-27.12,1.49-40.48-.94a133.82,133.82,0,0,1-19.67-5l0,.17Zm1.3-4.22a134.47,134.47,0,0,0,48.62,5.49c25.71-.86,53.53-5.38,73-23.6,7.33-6.71,12.57-15.12,17.52-23.76,1.32-1.91,3.33-6.81,6.17-6.54,3.1.74,1.79,5.36,1.65,7.59l-.69,4.95c-1.92,12.79-.42,26.83,8.79,36.52,4.34,4.74,9.94,8.16,15.74,11.29A112.79,112.79,0,0,0,309.3,266.5a79.84,79.84,0,0,0,9.6-.76c2.8-.43,5.84-1,8.16-2.45a2.28,2.28,0,0,0,.24-.22.94.94,0,0,0-.1.46c-2.57-3.32-8-6-12-8.56-5.25-3-12.05-7.05-17.36-9.66-4.45-2.31-9.33-4.4-13.33-7.66-6.1-5.44-12.08-14.76-10.53-23.34.67-3.67,3.36-6.84,6.28-9,2.88-2.31,7.14-4,7.11-7.92-.34-4.7-3.64-8.83-6.67-12.31a49.44,49.44,0,0,0-11-9.2c-3-1.85-6-2.79-9-4.95-4.68-3.85-1.2-7.8,2.6-10.35a46,46,0,0,0,7.34-6.27c3.25-3.68,5.66-8,8.52-12,3.78-5.56,7.82-11,12.12-16.17,6.24-7.77,13.44-14.4,17.55-23.33a65.5,65.5,0,0,0,5.08-18.23,27,27,0,0,0-.17-8.86c-1.36-6.16-5.87-7.62-11.94-8-3.6-.35-7,.11-10.67-1.43-8-4.42-.42-14.6,2.26-20.08,4.67-8.37,9.93-17.91,14.44-26.32,2.39-4.56,5.52-9.73,7-14.09a2.87,2.87,0,0,0,1,2.21L316,8s.05,0,0,0,0,0-.13,0a24.19,24.19,0,0,0-8.05,1.21,77.56,77.56,0,0,0-9,3.14,121.19,121.19,0,0,0-46.72,34.14C239.79,61.6,231.5,80.46,230.65,100c-.57,11.5,1.92,23,5.17,34,.49,2.24,3,8.34-1.25,8.17a4.31,4.31,0,0,1-2-1.17,44.66,44.66,0,0,1-4.14-5,167.26,167.26,0,0,0-30-32.4,127,127,0,0,0-38.31-21c-47.5-17.36-99.91.31-132.88,37.35-8.82,9.3-17.61,19.5-20.66,32.14-6.55,28.12,15.59,52.69,36.05,69a104.12,104.12,0,0,0,21,12.53,149.48,149.48,0,0,0,18.49,6.81l0,.16Z" transform="translate(-0.41 -0.61)"/><path class="cls-4" d="M78.64,212.29" transform="translate(-0.41 -0.61)"/><path class="cls-3" d="M64.59,86.32a108,108,0,0,1,48.78-57.11,45.27,45.27,0,0,1,12.4-4.79c3.9-.9,9,.35,8.5,5.37-.13,1.61-.5,3.11-.52,4.61a15.24,15.24,0,0,0,3.71,10.27c5.31,6.18,12.64,9.9,20.2,12.82,3.84,1.55,7.67,3,11.61,4.2a102.57,102.57,0,0,1,11.88,4.52c4,1.77,7.89,3.39,11.52,6.12a12.61,12.61,0,0,1,4.42,6.14,33.57,33.57,0,0,1,.78,6.71,65.59,65.59,0,0,1-.59,12.6,1,1,0,0,1-2,.1,85.75,85.75,0,0,1-2-12.38,44.65,44.65,0,0,0-.71-5.69A8.06,8.06,0,0,0,189.74,76c-2.87-2.24-6.75-3.91-10.45-5.69A99.91,99.91,0,0,0,168,65.62C154.1,60.4,130.23,52,129.7,34.38c-.16-1.51.46-4.35.12-5.38,0,0,0,.1-.07,0a6.36,6.36,0,0,0-2.93.26,43.87,43.87,0,0,0-10.48,5.07A148.76,148.76,0,0,0,82.08,64.31,161.32,161.32,0,0,0,66.41,87.15a1,1,0,0,1-1.82-.83Z" transform="translate(-0.41 -0.61)"/><path class="cls-4" d="M104.12,238.36" transform="translate(-0.41 -0.61)"/><path class="cls-4" d="M64.12,200.73" transform="translate(-0.41 -0.61)"/><path class="cls-4" d="M128.27,293.4" transform="translate(-0.41 -0.61)"/><ellipse class="cls-5" cx="39.66" cy="145.6" rx="7.26" ry="14.22"/><path class="cls-6" d="M22.64,168.14" transform="translate(-0.41 -0.61)"/><path class="cls-3" d="M3.85,158.4a47.76,47.76,0,0,0,26.63,10.76.5.5,0,0,1-.05,1,51.57,51.57,0,0,1-14.84-2.53,48.35,48.35,0,0,1-13.52-7,1.44,1.44,0,1,1,1.78-2.26Z" transform="translate(-0.41 -0.61)"/><path class="cls-2" d="M128.37,236.19c-1.1-1.56-2.94-2.33-4.48-3.37A37,37,0,0,1,120,229.7c-2.75-2.47-5.22-5.22-7.73-7.93a79.73,79.73,0,0,0-7.78-7.6c-3.08-2.53-6.56-4.46-9.15-7.54s-4.65-6-8.24-7.77a26.3,26.3,0,0,0-10.86-2.26c-1.84,0-3.68,0-5.52.12a2.43,2.43,0,0,0-1.72.79,93.16,93.16,0,0,0-13.62,3.87c-2.57,1-5.11,2-7.59,3.18a23.62,23.62,0,0,0-6.8,4.21,2.38,2.38,0,0,0,.32,3.7,122,122,0,0,0,10.26,44.61c.76,1.74,1.57,3.46,2.41,5.16a57.9,57.9,0,0,0,8.86,15l.08.12A88.29,88.29,0,0,0,70,286.54a6.08,6.08,0,0,0,5.54,2.21,7.77,7.77,0,0,0,4.64-3.21c2.56-3.34,4-7.37,6.14-11a49.79,49.79,0,0,1,6.82-8.88,81.28,81.28,0,0,1,19.3-14.39c3.69-2.07,7.48-4,11.29-5.81,1.78-.86,3.6-1.8,4.67-3.55A5.3,5.3,0,0,0,128.37,236.19Z" transform="translate(-0.41 -0.61)"/><path class="cls-2" d="M216.88,221.83a42,42,0,0,1-8.17-.34,2.36,2.36,0,0,0-1.41-.44h-1.2c-.58-.12-1.16-.25-1.74-.4a2.36,2.36,0,0,0-1.88.28h-.23a4.72,4.72,0,0,1-1.13-.12l.24,0-.26,0q-.3,0-.6-.12a10,10,0,0,1-1.07-.29c-.1,0-.42-.08-.49-.17.33.14.38.16.13,0l-.31-.16a3.06,3.06,0,0,0-1-.29,2.77,2.77,0,0,0-1.59-1.4c-1.84-.71-3.67.19-5.13,1.27-.66.48-1.31,1-2,1.48l-1,.81-.33.26-.36.27c-1.2.92-2.41,1.81-3.69,2.61s-2.95,1.44-4,2.67a2.56,2.56,0,0,0,0,3.54,2.82,2.82,0,0,0,.74.47,26.84,26.84,0,0,0,3.15,5.53,42.26,42.26,0,0,0,4.26,5.41,2.35,2.35,0,0,0,.33,1.44,2.63,2.63,0,0,0,1,.92l0,0h0l.06,0,.44.43a9,9,0,0,0,1.18,1,9.87,9.87,0,0,0,2.19,1.13,19.35,19.35,0,0,0,3.82,1,3,3,0,0,0,1.59-.1c2.59.81,5.39.6,7.32-1.43a2.73,2.73,0,0,0,1.51-1.64c2.5-7.15,5.2-14.6,11.4-19.39C220.38,224.76,218.91,221.72,216.88,221.83Z" transform="translate(-0.41 -0.61)"/><path class="cls-3" d="M41.49,209.34a122.66,122.66,0,0,0,16.17,59.08c3.75,6.45,7.83,13.07,13.59,17.7,2.25,1.69,5.1,3.11,6.66,1.08,1.94-3,3.44-6.82,5.46-10a90.72,90.72,0,0,1,9.61-13c24.06-27.7,45.25-18,31.22-28.84a142.6,142.6,0,0,1-20.56-18.65,114.71,114.71,0,0,0-8.3-8c-3.83-3.18-6.9-7.83-11.42-10s-9.9-1.89-14.55-.35a.67.67,0,0,1-.49-1.25A21.69,21.69,0,0,1,85,196.27c5.22,2,8.42,6.48,12.76,9.69,8.17,6.4,15,14.53,23.38,20.66,2,1.57,4.14,3.06,6.27,4.66,2.36,1.88,5.06,3.64,6.3,6.68a6.73,6.73,0,0,1-3.16,8.22c-3,1.69-6.46,2.56-9.36,3.91C111.9,254,104,260.49,97.32,268a84.69,84.69,0,0,0-9.11,12.09c-1.32,2.14-2.45,4.35-3.66,6.71-1.26,2.81-3.81,6.54-7.39,6.72-16.41,1.46-32-39.34-34.52-52.74a109.81,109.81,0,0,1-2.19-31.49.52.52,0,0,1,1,0Z" transform="translate(-0.41 -0.61)"/><path class="cls-3" d="M195.28,218.16a152.82,152.82,0,0,0,17.24.6,42.46,42.46,0,0,1,6.15.15c3.44.56,4.44,4,2.66,6.76-3.29,5.17-6.88,9.78-9.5,15.27-1.46,2.67-2.21,5.51-4.11,8.13-2.26,3-6.85,3.49-10.06,2.59A24.17,24.17,0,0,1,187,245.32c-4.09-4.44-6.57-10.11-8.06-15.88a.43.43,0,0,1,.82-.27,53.55,53.55,0,0,0,5.67,9.9c3.28,4.86,11.65,10.75,17.58,8.57,1.48-.66,1.84-1.77,2.56-3.26.74-1.7,1.51-3.57,2.39-5.36a69.36,69.36,0,0,1,6.12-10.23c1.38-2.11,3.23-3.91,4.16-6,0,.06,0,.08.07.1a8.18,8.18,0,0,0-3-.5l-2.89-.16a82.34,82.34,0,0,1-17.38-2.85.61.61,0,0,1,.22-1.19Z" transform="translate(-0.41 -0.61)"/></svg>